<svg width="21" height="36" viewBox="0 0 21 36" fill="none"
  xmlns="http://www.w3.org/2000/svg">
  <mask id="mask0_5_8" style="mask-type:luminance" maskUnits="userSpaceOnUse" x="0" y="0" width="21" height="36">
    <path d="M0.5 0.5H19.7694V35.5H0.5V0.5Z" fill="white" stroke="white"/>
  </mask>
  <g mask="url(#mask0_5_8)">
    <path d="M17.3789 35.0764L17.3721 35.0692L17.365 35.0622L0.933872 19.004C0.93324 19.0033 0.932609 19.0027 0.931978 19.0021C0.630569 18.6998 0.5 18.3706 0.5 17.9896C0.5 17.5998 0.636414 17.2573 0.924204 16.9847L0.924249 16.9847L0.930012 16.9791L17.3652 0.896222L17.3652 0.896243L17.369 0.892447C17.6225 0.638984 17.949 0.5 18.3627 0.5C19.1715 0.5 19.7694 1.09159 19.7694 1.88601C19.7694 2.25285 19.6081 2.60846 19.3523 2.88341L4.2722 17.6321L3.90671 17.9896L4.2722 18.3471L19.3524 33.0959C19.6103 33.3728 19.7694 33.7085 19.7694 34.0933C19.7694 34.8877 19.1715 35.4792 18.3627 35.4792C17.9505 35.4792 17.6297 35.3418 17.3789 35.0764Z" fill="white" fill-opacity="0.85" stroke="black"/>
  </g>
</svg>
