<svg width="21" height="36" viewBox="0 0 21 36" fill="none"
  xmlns="http://www.w3.org/2000/svg">
  <path d="M19.3185 16.9788L19.3184 16.9789L19.3245 16.9847C19.6222 17.2667 19.7694 17.6137 19.7694 17.9896C19.7694 18.3574 19.6283 18.6898 19.3166 19.0021C19.316 19.0027 19.3154 19.0033 19.3148 19.0039L2.9042 35.0624L2.90418 35.0624L2.90044 35.0662C2.6233 35.3431 2.29549 35.4792 1.88601 35.4792C1.10151 35.4792 0.5 34.8912 0.5 34.0933C0.5 33.6956 0.648597 33.3621 0.896328 33.0959L15.9765 18.3471L16.342 17.9896L15.9765 17.6321L0.896397 2.88346C0.650595 2.61892 0.5 2.26579 0.5 1.88601C0.5 1.08804 1.10154 0.5 1.88601 0.5C2.29559 0.5 2.62775 0.636595 2.90747 0.899429L19.3185 16.9788Z" fill="white" fill-opacity="0.85" stroke="black"/>
</svg>
