<?xml version="1.0" encoding="UTF-8" standalone="no"?>
<!-- Created with Inkscape (http://www.inkscape.org/) -->

<svg
   width="210mm"
   height="297mm"
   viewBox="0 0 210 297"
   version="1.1"
   id="svg5"
   xml:space="preserve"
   inkscape:version="1.2.1 (9c6d41e, 2022-07-14)"
   sodipodi:docname="logoapsphere.svg"
   xmlns:inkscape="http://www.inkscape.org/namespaces/inkscape"
   xmlns:sodipodi="http://sodipodi.sourceforge.net/DTD/sodipodi-0.dtd"
   xmlns="http://www.w3.org/2000/svg"
   xmlns:svg="http://www.w3.org/2000/svg"><sodipodi:namedview
     id="namedview7"
     pagecolor="#ffffff"
     bordercolor="#000000"
     borderopacity="0.25"
     inkscape:showpageshadow="2"
     inkscape:pageopacity="0.0"
     inkscape:pagecheckerboard="0"
     inkscape:deskcolor="#d1d1d1"
     inkscape:document-units="mm"
     showgrid="false"
     inkscape:zoom="1.1549141"
     inkscape:cx="214.73458"
     inkscape:cy="662.81984"
     inkscape:window-width="1512"
     inkscape:window-height="945"
     inkscape:window-x="779"
     inkscape:window-y="1477"
     inkscape:window-maximized="0"
     inkscape:current-layer="layer1" /><defs
     id="defs2" /><g
     inkscape:label="Layer 1"
     inkscape:groupmode="layer"
     id="layer1"><g
       id="g5475"
       transform="translate(-5.9564313,5.7273378)"><g
         id="g17"
         transform="matrix(0.75680678,0,0,0.75680678,30.097658,114.66732)"
         style="fill:#27b4c7;fill-opacity:1"><path
           d="m 19.8,15.3 h 0.5 l -0.4,-0.2 z m 0.5,0.1 z m 0.8,-0.7 c 0,0.1 0,0.1 0.1,0.1 l 0.4,-0.3 c -0.2,-0.1 -0.3,-0.1 -0.5,0.2 z m 0.4,-0.2 z m -4.1,2.3 z m -0.2,0.6 0.3,-0.2 C 17.6,17.1 17.6,17 17.6,17 h -0.2 l -0.2,0.4 c -0.1,-0.1 -0.1,0 0,0 z m 2.2,-2.9 h -0.1 l -0.2,0.2 h 0.3 z m -2.1,2.4 0.6,-0.5 C 18,16.3 18,16.2 18,16.1 H 17.7 L 16.5,17.2 16.3,17.6 17,17 Z m -1.1,0.8 z"
           id="path3"
           style="fill:#27b4c7;fill-opacity:1" /><path
           d="m 9.7,25 v -0.2 a 1.7,1.7 0 0 1 0.7,-1.1 l 0.9,-0.6 0.5,-0.6 0.7,-0.7 0.4,-0.4 0.4,-0.3 a 1.9,1.9 0 0 0 0.8,-0.9 l 0.4,-0.5 a 5.9,5.9 0 0 0 1,-1.3 l 0.2,-0.3 0.3,-0.2 -0.2,-0.3 0.4,-0.5 c 0.8,-0.6 1.4,-1.4 2.2,-2 l 0.3,-0.3 a 1.4,1.4 0 0 1 0.5,-0.6 L 20,13.8 h 0.4 a 1.4,1.4 0 0 0 0.7,-0.6 V 13 a 3.5,3.5 0 0 1 1.3,-1.4 l 0.8,-0.5 0.2,-0.2 0.4,-0.4 1,-0.5 H 25 l -1.1,0.4 -1.4,1 c -0.6,0.5 -1.4,0.6 -1.8,1.4 H 21 c -0.7,0.2 -1.4,0.5 -1.7,1.2 -0.3,0.7 -0.8,0.6 -1.2,0.9 a 0.4,0.4 0 0 0 -0.3,0.4 C 17,15.2 16.7,15.8 16.3,16.2 V 17 a 3.9,3.9 0 0 0 -1.6,1.4 c -1.6,0.1 -1.6,2.1 -3,2.5 h -0.1 a 0.2,0.2 0 0 0 0,0.2 c -0.3,0 -0.5,0.2 -0.4,0.5 L 11,22.1 c -0.7,0.4 -0.6,1.1 -1,1.7 -0.8,0.5 -1.1,1.5 -1.7,2.2 l 0.3,0.5 0.2,-0.2 A 11.6,11.6 0 0 1 9.7,25 Z M 53.9,3.3 54.5,3.5 h 0.2 a 2.2,2.2 0 0 0 1.4,0.2 4.1,4.1 0 0 1 1.9,0.1 h 1.2 a 1.4,1.4 0 0 1 1.2,0.3 0.1,0.1 0 0 1 0,0.1 H 60 a 0.1,0.1 0 0 0 0,0.1 h 0.7 a 1.8,1.8 0 0 1 1.3,0 c 0.2,0 0.1,0.1 0.2,0.2 l 0.5,0.2 H 62.5 C 62.3,4.3 62,4.3 61.7,4.3 A 9.7,9.7 0 0 0 57.4,3.4 H 56.6 A 9.8,9.8 0 0 0 53,3 h 0.2 z m 7.3,3.1 z M 50.3,4.7 Z m 10.9,1.7 h 0.2 z M 19,14.7 Z m 32.1,-10 z m 17.6,2.2 a 0.9,0.9 0 0 0 1,0.2 h 0.6 A 3.1,3.1 0 0 0 68.5,6.4 L 67.8,6.2 68.3,6.5 Z M 65.3,5.6 c 0,0.1 0.1,0.2 0.2,0.3 h 0.2 L 66.2,5.6 A 4.2,4.2 0 0 0 64.5,5 l 0.7,0.4 z m 7.4,2.7 0.8,0.5 C 73.3,8.5 73.1,8.3 72.7,8.3 Z"
           id="path5"
           style="fill:#27b4c7;fill-opacity:1" /><path
           d="m 108.08132,74.586446 0.6,-1.6 0.6,-1.5 c 0.2,-0.5 0.6,-1.8 0.8,-2.6 a 1.7,1.7 0 0 1 0.3,-0.7 h 0.1 v -1.1 c 0.5,-0.1 0.4,-0.6 0.5,-0.9 l 0.8,-4.7 a 12.7,12.7 0 0 0 0,-6.2 1.9,1.9 0 0 0 -0.5,-1.6 v -4.3 c -0.3,-0.9 0.3,-1.9 -0.4,-2.7 l -0.8,-3.2 a 0.4,0.4 0 0 0 0,-0.2 l -0.2,-0.6 a 0.5,0.5 0 0 1 0,-0.4 h 0.1 c 0.3,0 0.3,-0.5 0.3,-0.9 a 3,3 0 0 0 -0.4,-1.1 l -0.3,-0.4 a 1.1,1.1 0 0 1 -0.2,-0.7 6.7,6.7 0 0 0 -0.2,-2 v -0.6 c -0.2,-0.7 -0.4,-1.5 -0.6,-2.2 l -0.2,-0.5 a 2.5,2.5 0 0 1 -0.4,-1.1 2.5,2.5 0 0 0 -0.3,-0.8 l -0.6,-1 a 0.8,0.8 0 0 0 -0.6,-0.2 h -0.1 v -0.3 h -0.2 v -0.8 h -0.1 v -0.2 a 0.4,0.4 0 0 0 0,-0.1 v -0.2 c 0.1,-0.2 0.1,-0.3 -0.1,-0.5 a 1.8,1.8 0 0 1 -0.4,-0.6 l -0.2,-0.6 a 2.9,2.9 0 0 0 -0.7,-1.2 2.2,2.2 0 0 1 -0.5,-0.7 l -0.7,-1.6 a 4.3,4.3 0 0 0 -0.6,-1 l -0.6,-0.8 a 2.4,2.4 0 0 1 -0.4,-0.8 l -0.2,-0.3 a 0.6,0.6 0 0 1 -0.1,-0.5 0.5,0.5 0 0 0 -0.2,-0.4 l -0.4,-0.3 v 0.2 c 0.1,0.2 0,0.3 -0.1,0.3 h -0.2 l 0.3,1 0.3,0.5 0.7,0.9 h -0.1 l -0.2,-0.2 -0.2,-0.2 a 1.3,1.3 0 0 0 -1.2,-1.1 v -0.7 c -0.299999,-1.2 -1.599999,-1.3 -2.199999,-2.1 a 1.5,1.5 0 0 0 -1.1,-0.9 l -0.8,-0.9 a 11.3,11.3 0 0 0 -3.1,-3 l -0.8,-0.6 -0.4,-0.3 c -0.7,-0.7 -1,-1.8 -2.2,-1.8 l -0.8,-0.5 -0.9,-0.6999995 a 2.2,2.2 0 0 0 -1.8,-1.3 5.1,5.1 0 0 0 -2.3,-1.2 l 0.2,0.2 0.5,0.4 1.3,0.7 a 8.5,8.5 0 0 1 2.1,1.5999995 6.8,6.8 0 0 0 1.5,1.1 l 0.6,0.5 c 0.1,0.1 0.2,0.2 0.1,0.3 h -0.1 l -0.9,-0.3 a 5.6,5.6 0 0 1 -2,-0.8 l -1.2,-0.6 -1.3,-0.6999995 h -0.2 c -0.3,-0.1 -0.4,-0.4 -0.8,-0.5 l -0.8,-0.2 -2.5,-0.5 a 2.6,2.6 0 0 1 -0.9,-0.7 1.7,1.7 0 0 1 -0.9,-0.3 l -1,-0.4 a 18.1,18.1 0 0 1 -2.8,-0.8 l -0.6,-0.2 -1,-0.3 h -0.5 l -0.2,-0.3 v -0.1 h -1.6 l -0.6,-0.5 -0.4,0.2 -0.4,0.2 h -0.2 l -0.9,-0.5 c -0.6,0.6 -1.1,-0.2 -1.6,-0.1 l -1,-0.3 a 1.2,1.2 0 0 1 -1.2,0 h -1.2 a 0.6,0.6 0 0 1 -0.5,-0.6 l 0.3,-0.2 h 0.6 a 0.7,0.7 0 0 1 0.1,0.3 c 0,0.2 0.2,0.2 0.5,0.2 h 0.2 l -0.4,-0.6 a 1.1,1.1 0 0 0 -1,-0.2 l -1,0.3 h -0.1 c 0.3,0.2 0.2,0.3 0.2,0.5 h -1.6 l -0.4,-0.2 -0.8,-0.4 h -0.1 l -0.7,-0.2 h -2.3 l 0.4,-0.2 0.8,-0.2 h 0.3 l 1.7,-0.3 1.1,-0.2 0.6,-0.2 h -1.1 a 8.4,8.4 0 0 0 -3.4,0 h -1.3 l -3.4,-0.1 c -1.4,0.1 -2.8,0 -3.9,1.2 -2.5,-0.4 -4.7,0.7 -6.9,1.8 l -2.2,0.9 a 6.7,6.7 0 0 0 -3.7,1.8 h 0.3 l 0.5,-0.3 0.8,-0.5 1.3,-0.6 1,-0.2 a 6,6 0 0 1 2,-0.9 l 0.9,-0.3 h 0.2 c 0.1,0.2 0.5,0 0.7,0 h 0.2 c 0.1,0 0.1,0.1 0,0.1 l -0.6,0.4 1,-0.3 0.8,-0.2 -1.3,0.7 -1.3,0.4 a 1,1 0 0 0 -0.6,0.5 l -0.3,0.5 h 0.3 l 0.4,-0.2 a 1.4,1.4 0 0 1 0.9,-0.6 l 1.5,-0.5 h 0.5 a 0.1118034,0.1118034 0 0 1 0.1,0.2 c -0.2,0.2 -0.6,0.3 -0.8,0.5 h 0.2 l -3.2,0.9 -3.8,1.6 a 5.2,5.2 0 0 1 -2.3,1.1999995 6.6,6.6 0 0 1 -1.7,1.1 l -0.8,0.2 a 1.5,1.5 0 0 1 -1.3,0.9 l -0.3,0.5 a 3.7,3.7 0 0 1 -1.2,1.1 h -0.1 v -0.1 l -0.2,0.2 -0.2,0.2 -1,0.2 h -0.5 l -0.4,0.5 c -0.1,0.1 -0.1,0.2 0,0.2 h 0.1 c -0.6,0.6 -1,1.4 -1.8,1.7 l -1.3,1.5 c -0.6,1.2 -1.8,1.6 -2.6,2.6 -0.8,1 -1.4,3.9 -3.9,4.3 l -0.2,-0.3 -0.2,0.5 a 2.7,2.7 0 0 1 -0.4,0.8 16.9,16.9 0 0 0 -1.2,2.1 0.8,0.8 0 0 0 -0.1,0.5 1.4,1.4 0 0 1 -0.2,0.8 l -0.5,1.1 h 0.2 c 0.3,0 0.3,0.3 0.4,0.6 l 0.8,-1.1 a 2.2,2.2 0 0 1 0.6,-0.7 2,2 0 0 0 0.9,-0.9 l 0.3,-0.3 0.4,-0.4 0.6,-1.1 h 0.2 c 0.1,0.1 0.1,0.1 0.2,0 l 0.2,-0.4 h 0.5 v 0.8 l 0.5,-0.5 a 0.5,0.5 0 0 0 0,-0.5 0.4,0.4 0 0 1 0.1,-0.3 1.5,1.5 0 0 0 0.3,-0.5 1.3,1.3 0 0 1 0.8,-0.9 l 0.3,-0.2 0.3,-0.3 a 2.4,2.4 0 0 0 0.8,-1 l -0.2,-0.3 c 0,-0.1 0.1,-0.3 0.2,-0.4 h 0.5 l 0.6,-0.8 0.6,-0.3 h 0.2 a 48.8,48.8 0 0 0 -5.5,7.2 h -0.1 0.1 a 48.4,48.4 0 0 0 -5.3,11.2 h -0.5 l -0.5,-0.4 c -0.2,-0.2 -0.1,-0.7 -0.4,-0.9 h 0.1 c 0.3,-0.5 -0.1,-1.2 0.3,-1.7 0.4,-0.5 0.1,-1.4 -0.9,-1.2 -1,0.2 -1.5,0.5 -1.3,1.5 0.2,1 -1,1.8 -1.1,2.9 -0.1,1.1 -0.5,0.5 -0.3,0.9 v 3.9 c 0.1,0.8 -0.5,1.8 0.8,2.1 l 1.3,0.9 c 0.1,0.5 -0.5,1.6 0.9,1.3 a 49.2,49.2 0 0 0 -0.3,5 c 0,1.1 0.1,2.2 0.1,3.3 v -0.4 c -0.1,-0.4 -0.1,-0.8 -0.2,-1.3 l -0.3,0.3 v -0.2 h -0.5 c 0,0.5 -0.1,0.8 -0.4,0.9 a 0.9,0.9 0 0 0 -0.1,0.5 c 0,0.1 0.1,0.3 0.2,0.2 0.1,-0.1 0.4,0.2 0.7,0.4 0.3,0.2 -0.2,0.3 -0.4,0.2 -0.2,-0.1 -0.2,0.1 -0.2,0.3 v 0.3 l 0.5,1.5 c 0,0.3 -0.1,0.6 -0.1,0.9 a 1.7,1.7 0 0 0 0.2,0.8 h -0.3 v -0.3 l -0.7,-0.2 v -0.6 a 1.5,1.5 0 0 0 0,-0.5 14.6,14.6 0 0 1 -0.3,-1.8 16.6,16.6 0 0 1 -0.2,-3.5 0.9,0.9 0 0 1 0.1,-0.5 v 0.2 a 2.9,2.9 0 0 1 0.1,0.5 0.8,0.8 0 0 0 0.1,0.4 c 0.1,0.2 0.2,0.4 0.4,0.4 0.2,0 0.1,-0.1 0.1,-0.2 a 2.1,2.1 0 0 0 -0.1,-0.5 4.2,4.2 0 0 1 -0.3,-1.3 1.5,1.5 0 0 0 -0.3,-0.7 1.6,1.6 0 0 1 -0.2,-0.9 v -0.8 c 0,-0.3 0.1,-0.6 0.1,-0.9 a 0.5,0.5 0 0 0 -0.1,-0.4 h -0.1 c -0.8,0.4 -0.7,0.2 -1,1.6 v 1.8 c 0,0.7 -0.1,1.4 0,2.1 a 10.8,10.8 0 0 0 0.2,2.3 1.8,1.8 0 0 1 0,0.5 3.1,3.1 0 0 0 0.1,0.9 5.9,5.9 0 0 1 0.1,1.3 3.9,3.9 0 0 0 0.2,1.7 1.2,1.2 0 0 1 0,0.4 2.1,2.1 0 0 0 0.1,0.8 4.9,4.9 0 0 1 0.2,0.9 14,14 0 0 0 0.5,2.2 5,5 0 0 1 0.2,1 1.7,1.7 0 0 0 0.3,0.7 2.9,2.9 0 0 1 0.5,1.2 8.5,8.5 0 0 0 0.3,1 l 0.4,1.4 a 5.4,5.4 0 0 0 0.6,1.5 8.5,8.5 0 0 1 0.8,2.1 l 0.2,0.5 a 2.1,2.1 0 0 1 0.5,1 2.1,2.1 0 0 0 0.4,0.8 1,1 0 0 1 0.2,0.5 c 0.1,0.3 0.2,0.4 0.4,0.3 h 0.1 v 0.9 l 0.5,1 0.5,1 1.1,1.2 0.4,0.4 c 0.3,0.3 0.7,0.5 0.9,1 l 0.4,0.3 a 0.7,0.7 0 0 1 0.3,0.5 l 0.2,0.7 a 3.3,3.3 0 0 0 0.6,0.9 l 0.4,0.2 h 0.3 a 0.2,0.2 0 0 1 0.1,0.3 2.5,2.5 0 0 0 0,0.5 0.9,0.9 0 0 0 0.4,0.5 h 0.2 c 0.4,-0.1 0.8,0.2 1.2,0.7 h 0.1 c 0,-0.1 0.1,-0.1 0,-0.2 v -0.2 c 0,-0.1 0.1,-0.2 0.2,-0.1 a 0.7,0.7 0 0 1 0.3,0.6 v 0.2 a 4.3,4.3 0 0 0 0.4,1.2 c 0.5,0.3 0.5,0.3 0.5,0.1 0,-0.2 0,-0.2 0.2,-0.2 h 0.4 l 0.2,0.3 0.8,0.5 c 0.7,0.8 1.8,0.7 2.6,1.2 l 1.7,1.7 h 0.2 a 2.9,2.9 0 0 0 1.6,1.6 1.3,1.3 0 0 0 1,0.6 c 0,0.5 0.6,0.6 1.1,0.7 a 1.2,1.2 0 0 0 0.8,0.4 h 0.2 a 1.7,1.7 0 0 0 1.5,0.5 l 0.9,0.8 2.4,0.9 v 0.2 c 0.5,1.100004 1.7,0.700004 2.5,1.000004 l 1.1,0.4 h 0.4 c 1.2,0.3 2.4,0.9 3.7,0.5 a 0.7,0.7 0 0 0 0,0.4 c 1.1,0.7 2.4,0 3.6,0.4 a 2.9,2.9 0 0 0 1.7,0.1 h 0.1 l 0.8,0.2 h 0.3 l 0.9,0.2 h 0.3 a 0.5,0.5 0 0 1 0.5,0 7.9,7.9 0 0 0 1.5,0.4 h 0.6 a 0.7,0.7 0 0 1 0.7,0 h 3.9 a 5,5 0 0 0 1.6,-0.1 h 1 l 0.5,-0.2 h 3.3 l 0.6,-0.2 0.5,-0.3 h 2.2 v 0.6 h -1.3 l -1.2,0.2 c -0.4,0.1 -0.7,0 -1,0.1 a 2.4,2.4 0 0 1 -1,0.2 l -1.3,0.3 h -0.4 a 3.1,3.1 0 0 0 -1.5,0.1 h -1.8 a 1.1,1.1 0 0 1 -0.9,0 h -4.5 a 1.3,1.3 0 0 0 -1.1,0.3 h -0.3 l -0.3,-0.2 v -0.3 h -1.2 a 4.1,4.1 0 0 0 -1.3,-0.3 h -2.5 l -0.7,-0.2 -0.5,-0.2 -2.1,-0.4 h -0.5 l -0.5,-0.2 -2.1,-0.7 -1.4,-0.4 h -2.2 c -0.1,0 -0.1,0.1 -0.1,0.2 h 0.2 c 1.3,0.5 2.6,0.9 3.9,1.5 h 0.3 l 0.9,0.2 1.4,0.4 h 1.3 l 0.6,0.2 0.7,0.3 1.7,0.3 1.1,0.2 1.1,0.2 h 0.8 l 0.8,0.2 h 3.1 l 1,0.2 h 2.3 l 1,-0.2 h 2.2 c 0.4,0 0.6,-0.1 0.7,-0.3 h 1 a 1,1 0 0 0 0.8,-0.3 c -0.1,0.1 0,0.1 0.1,0.2 h 0.4 v -0.2 c 0,-0.1 0,-0.1 0.2,-0.2 0.2,-0.1 0.6,-0.1 0.7,0.1 h 0.4 l 0.3,-0.2 c 0.2,0 0.2,0 0.2,0.1 h 0.7 l 0.5,-0.2 0.8,-0.4 c 0.1,0.3 0.4,0.4 1.3,0.2 l 1.3,-0.4 h 1.2 c 0.9,-0.1 2,0 2.7,-0.7 h 0.2 l 0.4,-0.3 1.1,-0.3 a 6.1,6.1 0 0 0 2,-0.8 l 0.4,-0.2 h 0.1 l 0.9,-0.6 0.4,-0.2 0.5,-0.200004 h 0.4 c 0.4,-0.1 0.4,-0.1 0.5,-0.4 0.1,-0.3 0,-0.1 -0.2,-0.1 h -0.1 l 0.4,-0.5 h 0.2 c 0.3,-0.1 0.5,-0.2 0.7,-0.1 h 0.2 a 1.3,1.3 0 0 0 0.9,-0.9 c 0.3,-0.4 1.1,-0.2 1.3,-0.8 l 4.3,-3.1 c 1.1,-0.1 1.4,-1.1 2.2,-1.7 0.8,-0.6 2.3,-1.1 3,-2.2 l 0.9,-0.4 h 0.1 a 1,1 0 0 0 1.199999,-0.7 v 0.4 c 0.8,-0.4 1.8,0.3 2.6,-0.5 0.8,-0.8 0,-2.7 1,-3.8 l 0.7,-0.5 a 12.1,12.1 0 0 0 1.5,-4.2 l 0.2,-0.2 c 0,-0.3 0,-0.7 0.4,-0.9 a 0.9,0.9 0 0 0 0.2,-1.2 h -0.2 a 0.3,0.3 0 0 0 0,-0.3 c 0.7,0 0.8,-0.7 1.2,-1 v -1.4 a 0.5,0.5 0 0 1 0,-0.2 3.8,3.8 0 0 0 0.1,-0.7 z m -93.099999,-43.9 z"
           id="path7"
           style="fill:#27b4c7;fill-opacity:1" /><path
           d="m 26.4,9.3 -0.3,0.2 -0.4,0.3 0.5,-0.2 z m 6.1,-2 h 0.1 l 0.3,-0.2 h -0.4 z m -2.6,1 -0.1,0.1 h 0.1 z m -1.5,1.4 z m 1.3,-0.2 z m -6.3,3.1 z M 9.2,26.2 8.8,26.6 H 9 a 0.4,0.4 0 0 0 0.2,-0.4 z m 3,-3.5 a 2.1,2.1 0 0 0 0.3,-0.6 1.5,1.5 0 0 0 -0.5,0.5 c -0.1,0.1 -0.1,0.2 0,0.2 z M 11,24.2 V 24 c -0.2,0 -0.5,0.3 -0.8,0.3 v 0.2 c 0.3,0.3 0.4,0.2 0.8,-0.3 z m 3,66.2 z M 73.9,9.2 H 74 L 73.5,8.9 Z M 71.4,7.8 c 0.5,-0.1 0.8,0.4 1.2,0.5 h 0.1 L 72.4,8.1 71.4,7.6 70.3,7.1 70.6,7.3 Z M 52.8,3.1 Z m 11.7,2 H 64.4 L 63.2,4.9 h 0.5 z m 2,0.7 1.3,0.4 A 3.3,3.3 0 0 0 66.5,5.8 Z m -9,0 a 1,1 0 0 0 0.2,-0.5 h -0.5 l -0.3,0.3 0.4,0.3 z m 9,1.6 z M 49.9,4.2 Z m 2.9,0.7 z M 48.5,4 Z m 13.8,2.1 a 0.5,0.5 0 0 0 0,0.1 z m 44.8,52.3 h -0.3 V 58 h 0.3 c 0.1,0 0.2,-0.3 0.1,-0.4 -0.1,-0.1 -0.1,-0.7 -0.3,-0.8 a 0.3,0.3 0 0 1 -0.2,-0.3 l 0.2,-0.4 a 0.4,0.4 0 0 0 0,-0.2 h -0.2 l -0.2,-0.3 c -0.1,0.3 -0.2,0.6 -0.4,0.7 a 0.5,0.5 0 0 0 0,0.2 c 0,0.1 0,0.2 -0.1,0.2 h -0.1 a 1.1,1.1 0 0 1 -0.1,0.3 2.3,2.3 0 0 0 -0.4,0.9 0.4,0.4 0 0 0 0.1,0.4 h 0.1 a 1.7,1.7 0 0 0 -0.1,0.8 v 0.4 a 1.8,1.8 0 0 1 -0.1,0.5 h -0.1 l -0.4,0.7 v 0.6 a 1.5,1.5 0 0 1 -0.3,1.1 h -0.2 l -0.2,-0.2 a 0.9,0.9 0 0 1 -0.1,-0.8 6.5,6.5 0 0 0 0.1,-1.7 c 0,-0.1 -0.1,-0.2 -0.1,-0.2 a 0.5,0.5 0 0 0 -0.1,0.3 v 0.6 c 0,0.2 -0.1,0.6 -0.3,0.7 -0.2,0.1 -0.1,0.2 -0.1,0.3 l -0.2,0.6 0.3,0.5 c -0.2,0.2 -0.4,0.1 -0.5,-0.1 v 1 h 0.3 v 0.4 a 4.2,4.2 0 0 0 -0.3,1.4 3.3,3.3 0 0 0 0,0.4 4,4 0 0 1 -0.2,1.3 2,2 0 0 0 0,0.6 l -0.3,0.7 a 3.2,3.2 0 0 1 -0.3,0.7 l -0.3,0.6 -0.9,2.7 c 0.3,0.9 -0.4,1.5 -0.8,2.1 a 2.7,2.7 0 0 1 -0.8,2.3 V 77 c 0,0.1 0.1,0.2 0.3,0.1 l 0.4,-0.3 0.2,-0.4 h 0.2 c 0.1,0.1 0.2,0.1 0.4,-0.1 h 0.2 a 0.5,0.5 0 0 1 0.1,0.6 2.9,2.9 0 0 0 -0.1,0.8 c 0,0.1 0,0.2 0.1,0.2 h 0.2 c 0.1,0.1 0.2,0 0.3,-0.3 l 0.2,-0.5 h 0.3 c 0.4,-0.1 0.4,-0.1 0.6,-0.6 l 0.5,-0.9 0.3,-0.6 0.4,-1 a 1.6,1.6 0 0 1 0.3,-1 0.6,0.6 0 0 0 0.1,-0.6 c 0,-0.2 0,-0.3 0.2,-0.6 l 0.3,-0.4 0.5,-1 a 4.7,4.7 0 0 1 0.2,-0.9 3,3 0 0 0 0.3,-1.3 3.8,3.8 0 0 1 0.3,-0.9 v -0.5 c -0.1,-0.2 -0.1,-0.2 0,-0.6 0.1,-0.4 0.1,-0.2 0.2,-0.2 a 0.4,0.4 0 0 1 0.1,0.3 l 0.2,-0.5 a 2.3,2.3 0 0 0 0.2,-0.9 v -0.3 c 0,-0.1 0,-0.3 -0.1,-0.3 v 0.4 c -0.2,0 -0.3,0.2 -0.5,0.3 a 6.4,6.4 0 0 0 0.1,-0.8 L 107,64 a 0.7,0.7 0 0 0 0.2,-0.6 1.4,1.4 0 0 1 0,-0.3 4.8,4.8 0 0 0 0.2,-1.4 v -0.2 l 0.3,-1 h 0.1 a 0.3,0.3 0 0 0 0.1,-0.3 h -0.1 a 0.9,0.9 0 0 1 0.2,-0.8 1.5,1.5 0 0 0 -0.9,-1 z m -1.2,7.8 z m -0.2,-9.9 z m 0,0 z M 9.1,30.8 a 0.3,0.3 0 0 0 0,-0.2 L 8.9,30.4 8.7,30.6 8.4,31.2 c 0,0.3 -0.3,0.6 -0.3,0.9 v 0.2 h 0.1 z m 96.3,24.8 h 0.1 a 1.7,1.7 0 0 0 0.2,-1.2 0.5,0.5 0 0 1 0.2,-0.5 h 0.1 v -0.2 l -0.2,-0.2 h -0.1 c -0.1,0.1 -0.2,0.3 -0.3,0.3 -0.1,0 -0.1,0.1 -0.1,0.3 v 0.3 a 2.2,2.2 0 0 0 0.1,1.2 z M 13.2,90.1 c -0.1,0 0,0.2 0,0.3 l 0.8,0.8 h 0.1 c -0.2,-0.3 -0.3,-0.6 -0.2,-0.7 a 0.9,0.9 0 0 1 -0.5,-0.2 z m 0.8,0.3 z m 92.3,-35.7 h 0.1 a 2,2 0 0 0 0,-0.6 c -0.3,0.1 -0.3,0.1 -0.3,0.6 0,0.5 0.1,0.1 0.2,0 z"
           id="path9"
           style="fill:#27b4c7;fill-opacity:1" /><path
           d="m 106.7,62 a 0.6,0.6 0 0 0 0.1,-0.5 c 0,-0.1 -0.1,-0.2 -0.1,-0.1 h -0.2 v 0.2 c 0,0.4 0.1,0.5 0.2,0.4 z m 0.1,-8.2 h -0.1 v 0.6 a 1,1 0 0 0 0.1,-0.6 z M 17.1,92.6 h -0.2 v 0.2 l 0.2,0.2 h 0.2 v -0.2 z m 86.6,-33.3 c 0,-0.1 0,-0.1 -0.1,-0.1 z M 9.9,86.5 10.4,87 10,86.4 Z"
           id="path11"
           style="fill:#27b4c7;fill-opacity:1" /><circle
           cx="10.5"
           cy="87.099998"
           transform="rotate(-24.8,10.4,87.159)"
           id="circle13"
           r="0"
           style="fill:#27b4c7;fill-opacity:1" /><path
           d="M 9.7,30.1 H 9.6 v 0.2 -0.2 z M 92.9,23.5 92.7,23.2 H 92.6 Z M 78.2,100.6 Z M 5.9,32.2 Z m -0.1,0.2 a 0.3,0.3 0 0 0 0.1,-0.2 v 0.2 z M 7.7,27.5 Z M 61.5,2.4 Z m 42.8,58.2 v 0.1 z M 16.4,92.5 h -0.1 c 0.1,0.1 0.2,0 0.1,-0.1 z m 0.2,0.7 h 0.1 L 16.6,93.1 Z M 90.5,21.9 Z m 15.2,34.4 z M 14.6,91.7 Z m 92.1,-37 z m -0.8,11.4 z M 34.6,0 Z"
           id="path15"
           style="fill:#27b4c7;fill-opacity:1" /></g><path
         d="m 59.915094,141.11805 -0.712083,5.92208 c -0.243411,2.52016 2.568289,3.0351 2.850343,0.57548 l 0.631264,-5.98696 c 0.282052,-2.4596 -2.526112,-3.03076 -2.769524,-0.5106 z m -9.132045,-8.68625 v 0 c 0.04218,0.005 21.622748,1.76783 21.696497,1.94508 1.250685,1.71207 -1.444321,39.15991 -2.397188,40.13668 -0.450045,0.40627 -4.941982,0.28438 -9.753662,-0.15315 -0.546387,-5.48573 0.52432,-11.71035 0.52432,-11.71035 0.412117,-2.50281 -2.385446,-3.24255 -2.748318,-0.84778 -0.0036,0.0562 -1.074239,6.28081 -0.605375,12.32417 -4.804609,-0.5499 -9.131136,-1.27696 -9.34885,-1.86491 -0.716288,-2.10966 2.498977,-39.73032 2.632576,-39.82974 z"
         id="path20"
         style="fill:#ffffff;stroke-width:1.22103" /><path
         d="m 89.394821,142.21525 0.09226,5.96402 c 0.09833,2.52998 2.953775,2.66142 2.901888,0.18622 l -0.181078,-6.01742 c -0.05189,-2.47517 -2.911398,-2.6628 -2.813064,-0.13282 z m -10.219036,-7.37676 v 0 c 0.04247,-7.2e-4 21.663785,-1.16138 21.760735,-0.99569 1.46995,1.52797 1.87672,19.99623 2.46472,24.74811 0,0 -3.03079,0.2473 -6.942828,0.2264 -4.446964,0.38789 -6.698983,0.50783 -6.698983,0.50783 0.07117,-2.53551 1.78447,-2.46602 0.6021,-0.0361 0.004,0.0562 -0.192207,10.03369 1.086567,15.95877 -4.83489,0.10238 -9.219926,-0.0351 -9.514866,-0.58839 -0.993979,-1.99392 -2.87643,-39.70477 -2.757444,-39.82129 z"
         id="path3885"
         style="fill:#ffffff;stroke-width:1.22103"
         sodipodi:nodetypes="ccccscsscccccccss" /></g></g></svg>
